<svg xmlns="http://www.w3.org/2000/svg" xmlns:xlink="http://www.w3.org/1999/xlink" width="4767pt" height="479pt" viewBox="0.00 0.00 4767.39 479.00">
<g id="graph0" class="graph" transform="scale(1 1) rotate(0) translate(4 475)">
<title>GraphOfConvexSets</title>
<polygon fill="white" stroke="transparent" points="-4,4 -4,-475 4763.39,-475 4763.39,4 -4,4"/>
<!-- v342 -->
<g id="node1" class="node">
<title>v342</title>
<ellipse fill="none" stroke="black" cx="2549.39" cy="-453" rx="77.19" ry="18"/>
<text text-anchor="middle" x="2549.39" y="-449.3" font-family="Times,serif" font-size="14.00">start: Region0</text>
</g>
<!-- v343 -->
<g id="node2" class="node">
<title>v343</title>
<ellipse fill="none" stroke="black" cx="2549.39" cy="-366" rx="79.89" ry="18"/>
<text text-anchor="middle" x="2549.39" y="-362.3" font-family="Times,serif" font-size="14.00">home: Region0</text>
</g>
<!-- v342&#45;&gt;v343 -->
<g id="edge1" class="edge">
<title>v342-&gt;v343</title>
<path fill="none" stroke="black" d="M2549.39,-434.8C2549.39,-423.16 2549.39,-407.55 2549.39,-394.24"/>
<polygon fill="black" stroke="black" points="2552.89,-394.18 2549.39,-384.18 2545.89,-394.18 2552.89,-394.18"/>
<text text-anchor="middle" x="2666.89" y="-405.8" font-family="Times,serif" font-size="14.00">start: Region0 -&gt; home: Region0</text>
</g>
<!-- v344 -->
<g id="node3" class="node">
<title>v344</title>
<ellipse fill="none" stroke="black" cx="1191.39" cy="-279" rx="100.18" ry="18"/>
<text text-anchor="middle" x="1191.39" y="-275.3" font-family="Times,serif" font-size="14.00">transition: Region0</text>
</g>
<!-- v343&#45;&gt;v344 -->
<g id="edge8" class="edge">
<title>v343-&gt;v344</title>
<path fill="none" stroke="black" d="M2469.19,-365.12C2239.91,-365.05 1584.52,-361.98 1372.39,-330 1328.63,-323.4 1280.39,-309.75 1244.72,-298.37"/>
<polygon fill="black" stroke="black" points="1245.6,-294.97 1235.01,-295.23 1243.45,-301.63 1245.6,-294.97"/>
<text text-anchor="middle" x="1507.39" y="-318.8" font-family="Times,serif" font-size="14.00">home: Region0 -&gt; transition: Region0</text>
</g>
<!-- v346 -->
<g id="node5" class="node">
<title>v346</title>
<ellipse fill="none" stroke="black" cx="2189.39" cy="-279" rx="143.77" ry="18"/>
<text text-anchor="middle" x="2189.39" y="-275.3" font-family="Times,serif" font-size="14.00">top_shelf_approach: Region0</text>
</g>
<!-- v343&#45;&gt;v346 -->
<g id="edge4" class="edge">
<title>v343-&gt;v346</title>
<path fill="none" stroke="black" d="M2469.27,-365.69C2326.72,-366.08 2041.05,-362.71 2010.39,-330 1988.66,-306.81 2010.14,-294.07 2044.81,-287.16"/>
<polygon fill="black" stroke="black" points="2045.68,-290.56 2054.91,-285.36 2044.45,-283.67 2045.68,-290.56"/>
<text text-anchor="middle" x="2178.89" y="-318.8" font-family="Times,serif" font-size="14.00">home: Region0 -&gt; top_shelf_approach: Region0</text>
</g>
<!-- v348 -->
<g id="node7" class="node">
<title>v348</title>
<ellipse fill="none" stroke="black" cx="3226.39" cy="-279" rx="146.47" ry="18"/>
<text text-anchor="middle" x="3226.39" y="-275.3" font-family="Times,serif" font-size="14.00">mid_shelf_approach: Region0</text>
</g>
<!-- v343&#45;&gt;v348 -->
<g id="edge6" class="edge">
<title>v343-&gt;v348</title>
<path fill="none" stroke="black" d="M2615.59,-355.81C2644.51,-350.42 2678.38,-342.19 2707.39,-330 2718.64,-325.27 2718.82,-318.89 2730.39,-315 2791.58,-294.44 2950.53,-285.96 3072.16,-282.46"/>
<polygon fill="black" stroke="black" points="3072.42,-285.95 3082.32,-282.17 3072.23,-278.95 3072.42,-285.95"/>
<text text-anchor="middle" x="2900.89" y="-318.8" font-family="Times,serif" font-size="14.00">home: Region0 -&gt; mid_shelf_approach: Region0</text>
</g>
<!-- v351 -->
<g id="node10" class="node">
<title>v351</title>
<ellipse fill="none" stroke="black" cx="3531.39" cy="-279" rx="83.39" ry="18"/>
<text text-anchor="middle" x="3531.39" y="-275.3" font-family="Times,serif" font-size="14.00">object: Region0</text>
</g>
<!-- v343&#45;&gt;v351 -->
<g id="edge2" class="edge">
<title>v343-&gt;v351</title>
<path fill="none" stroke="black" d="M2629.31,-364.27C2832.82,-362.06 3359.9,-354.07 3435.39,-330 3447.02,-326.29 3447.75,-320.98 3458.39,-315 3467.67,-309.78 3477.86,-304.58 3487.59,-299.85"/>
<polygon fill="black" stroke="black" points="3489.24,-302.94 3496.75,-295.47 3486.22,-296.63 3489.24,-302.94"/>
<text text-anchor="middle" x="3580.39" y="-318.8" font-family="Times,serif" font-size="14.00">home: Region0 -&gt; object: Region0</text>
</g>
<!-- v344&#45;&gt;v343 -->
<g id="edge9" class="edge">
<title>v344-&gt;v343</title>
<path fill="none" stroke="black" d="M1286.68,-284.75C1378.14,-289.94 1520.05,-299.62 1642.39,-315 1680.89,-319.84 1689.81,-325.83 1728.39,-330 1992.87,-358.58 2307.64,-364.09 2459.12,-364.98"/>
<polygon fill="black" stroke="black" points="2459.28,-368.48 2469.3,-365.04 2459.32,-361.48 2459.28,-368.48"/>
<text text-anchor="middle" x="1863.39" y="-318.8" font-family="Times,serif" font-size="14.00">transition: Region0 -&gt; home: Region0</text>
</g>
<!-- v350 -->
<g id="node9" class="node">
<title>v350</title>
<ellipse fill="none" stroke="black" cx="857.39" cy="-192" rx="143.77" ry="18"/>
<text text-anchor="middle" x="857.39" y="-188.3" font-family="Times,serif" font-size="14.00">bot_shelf_approach: Region0</text>
</g>
<!-- v344&#45;&gt;v350 -->
<g id="edge10" class="edge">
<title>v344-&gt;v350</title>
<path fill="none" stroke="black" d="M1092.21,-276.55C975.97,-273.81 796.42,-265.88 775.39,-243 764.25,-230.88 773.89,-220.68 789.95,-212.71"/>
<polygon fill="black" stroke="black" points="791.71,-215.76 799.44,-208.51 788.88,-209.35 791.71,-215.76"/>
<text text-anchor="middle" x="959.39" y="-231.8" font-family="Times,serif" font-size="14.00">transition: Region0 -&gt; bot_shelf_approach: Region0</text>
</g>
<!-- v345 -->
<g id="node4" class="node">
<title>v345</title>
<ellipse fill="none" stroke="black" cx="1900.39" cy="-192" rx="96.68" ry="18"/>
<text text-anchor="middle" x="1900.39" y="-188.3" font-family="Times,serif" font-size="14.00">top_shelf: Region0</text>
</g>
<!-- v345&#45;&gt;v346 -->
<g id="edge13" class="edge">
<title>v345-&gt;v346</title>
<path fill="none" stroke="black" d="M1910.54,-210.24C1918.12,-221.48 1929.53,-235.41 1943.39,-243 1964.01,-254.29 2011.67,-262.31 2059.6,-267.8"/>
<polygon fill="black" stroke="black" points="2059.5,-271.31 2069.82,-268.93 2060.27,-264.35 2059.5,-271.31"/>
<text text-anchor="middle" x="2124.89" y="-231.8" font-family="Times,serif" font-size="14.00">top_shelf: Region0 -&gt; top_shelf_approach: Region0</text>
</g>
<!-- v352 -->
<g id="node11" class="node">
<title>v352</title>
<ellipse fill="none" stroke="black" cx="2057.39" cy="-105" rx="125.38" ry="18"/>
<text text-anchor="middle" x="2057.39" y="-101.3" font-family="Times,serif" font-size="14.00">top_shelf_place: Region0</text>
</g>
<!-- v345&#45;&gt;v352 -->
<g id="edge24" class="edge">
<title>v345-&gt;v352</title>
<path fill="none" stroke="black" d="M1885.34,-173.88C1878.12,-163.53 1872.55,-150.54 1880.39,-141 1889.55,-129.86 1915.02,-122.2 1943.88,-116.97"/>
<polygon fill="black" stroke="black" points="1944.51,-120.41 1953.79,-115.28 1943.34,-113.51 1944.51,-120.41"/>
<text text-anchor="middle" x="2047.39" y="-144.8" font-family="Times,serif" font-size="14.00">top_shelf: Region0 -&gt; top_shelf_place: Region0</text>
</g>
<!-- v346&#45;&gt;v343 -->
<g id="edge5" class="edge">
<title>v346-&gt;v343</title>
<path fill="none" stroke="black" d="M2276.41,-293.42C2299.98,-298.61 2325.12,-305.64 2347.39,-315 2358.64,-319.73 2359.08,-325.41 2370.39,-330 2401.37,-342.57 2437.24,-350.73 2468.7,-355.97"/>
<polygon fill="black" stroke="black" points="2468.32,-359.45 2478.74,-357.57 2469.42,-352.54 2468.32,-359.45"/>
<text text-anchor="middle" x="2538.89" y="-318.8" font-family="Times,serif" font-size="14.00">top_shelf_approach: Region0 -&gt; home: Region0</text>
</g>
<!-- v346&#45;&gt;v345 -->
<g id="edge12" class="edge">
<title>v346-&gt;v345</title>
<path fill="none" stroke="black" d="M2049.22,-275.07C1868.16,-270.58 1574.05,-260.61 1557.39,-243 1522.71,-206.35 1680.64,-196.26 1793.72,-193.66"/>
<polygon fill="black" stroke="black" points="1793.91,-197.16 1803.83,-193.45 1793.76,-190.16 1793.91,-197.16"/>
<text text-anchor="middle" x="1738.89" y="-231.8" font-family="Times,serif" font-size="14.00">top_shelf_approach: Region0 -&gt; top_shelf: Region0</text>
</g>
<!-- v355 -->
<g id="node14" class="node">
<title>v355</title>
<ellipse fill="none" stroke="black" cx="2536.39" cy="-192" rx="116.18" ry="18"/>
<text text-anchor="middle" x="2536.39" y="-188.3" font-family="Times,serif" font-size="14.00">top_shelf_pre: Region0</text>
</g>
<!-- v346&#45;&gt;v355 -->
<g id="edge18" class="edge">
<title>v346-&gt;v355</title>
<path fill="none" stroke="black" d="M2252.25,-262.8C2270.13,-257.51 2289.37,-250.9 2306.39,-243 2317.46,-237.86 2318.02,-232.44 2329.39,-228 2360.08,-216 2394.9,-208.11 2427.12,-202.93"/>
<polygon fill="black" stroke="black" points="2427.67,-206.38 2437.02,-201.4 2426.61,-199.47 2427.67,-206.38"/>
<text text-anchor="middle" x="2526.39" y="-231.8" font-family="Times,serif" font-size="14.00">top_shelf_approach: Region0 -&gt; top_shelf_pre: Region0</text>
</g>
<!-- v347 -->
<g id="node6" class="node">
<title>v347</title>
<ellipse fill="none" stroke="black" cx="3358.39" cy="-192" rx="98.58" ry="18"/>
<text text-anchor="middle" x="3358.39" y="-188.3" font-family="Times,serif" font-size="14.00">mid_shelf: Region0</text>
</g>
<!-- v347&#45;&gt;v348 -->
<g id="edge15" class="edge">
<title>v347-&gt;v348</title>
<path fill="none" stroke="black" d="M3456.26,-194.5C3510.64,-198.79 3562.06,-210.88 3533.39,-243 3527.14,-250 3435.89,-259.82 3354.5,-267.27"/>
<polygon fill="black" stroke="black" points="3353.76,-263.82 3344.11,-268.21 3354.39,-270.79 3353.76,-263.82"/>
<text text-anchor="middle" x="3725.39" y="-231.8" font-family="Times,serif" font-size="14.00">mid_shelf: Region0 -&gt; mid_shelf_approach: Region0</text>
</g>
<!-- v353 -->
<g id="node12" class="node">
<title>v353</title>
<ellipse fill="none" stroke="black" cx="3357.39" cy="-105" rx="128.08" ry="18"/>
<text text-anchor="middle" x="3357.39" y="-101.3" font-family="Times,serif" font-size="14.00">mid_shelf_place: Region0</text>
</g>
<!-- v347&#45;&gt;v353 -->
<g id="edge26" class="edge">
<title>v347-&gt;v353</title>
<path fill="none" stroke="black" d="M3268.78,-184.4C3229.1,-179.43 3188.63,-170.82 3176.39,-156 3172.14,-150.86 3172.15,-146.14 3176.39,-141 3185.72,-129.69 3211.57,-121.99 3240.91,-116.77"/>
<polygon fill="black" stroke="black" points="3241.68,-120.19 3250.97,-115.09 3240.53,-113.28 3241.68,-120.19"/>
<text text-anchor="middle" x="3347.39" y="-144.8" font-family="Times,serif" font-size="14.00">mid_shelf: Region0 -&gt; mid_shelf_place: Region0</text>
</g>
<!-- v348&#45;&gt;v343 -->
<g id="edge7" class="edge">
<title>v348-&gt;v343</title>
<path fill="none" stroke="black" d="M3154.06,-294.75C3134.27,-299.97 3113.13,-306.66 3094.39,-315 3083.24,-319.96 3082.96,-326.13 3071.39,-330 2993.8,-355.92 2766.98,-362.69 2639.33,-364.43"/>
<polygon fill="black" stroke="black" points="2639.14,-360.93 2629.19,-364.56 2639.23,-367.93 2639.14,-360.93"/>
<text text-anchor="middle" x="3264.89" y="-318.8" font-family="Times,serif" font-size="14.00">mid_shelf_approach: Region0 -&gt; home: Region0</text>
</g>
<!-- v348&#45;&gt;v347 -->
<g id="edge14" class="edge">
<title>v348-&gt;v347</title>
<path fill="none" stroke="black" d="M3183.26,-261.76C3166.03,-252.84 3152.55,-240.96 3163.39,-228 3175.9,-213.04 3215.59,-204.47 3255.93,-199.56"/>
<polygon fill="black" stroke="black" points="3256.37,-203.03 3265.9,-198.42 3255.57,-196.08 3256.37,-203.03"/>
<text text-anchor="middle" x="3348.39" y="-231.8" font-family="Times,serif" font-size="14.00">mid_shelf_approach: Region0 -&gt; mid_shelf: Region0</text>
</g>
<!-- v356 -->
<g id="node15" class="node">
<title>v356</title>
<ellipse fill="none" stroke="black" cx="4160.39" cy="-192" rx="118.88" ry="18"/>
<text text-anchor="middle" x="4160.39" y="-188.3" font-family="Times,serif" font-size="14.00">mid_shelf_pre: Region0</text>
</g>
<!-- v348&#45;&gt;v356 -->
<g id="edge20" class="edge">
<title>v348-&gt;v356</title>
<path fill="none" stroke="black" d="M3341.85,-267.9C3373.45,-265.38 3407.73,-262.86 3439.39,-261 3544.84,-254.8 3811.34,-266.19 3914.39,-243 3930.9,-239.28 3933.15,-232.75 3949.39,-228 3984.18,-217.82 4023.11,-210.32 4057.98,-204.93"/>
<polygon fill="black" stroke="black" points="4058.81,-208.34 4068.17,-203.39 4057.76,-201.42 4058.81,-208.34"/>
<text text-anchor="middle" x="4149.89" y="-231.8" font-family="Times,serif" font-size="14.00">mid_shelf_approach: Region0 -&gt; mid_shelf_pre: Region0</text>
</g>
<!-- v349 -->
<g id="node8" class="node">
<title>v349</title>
<ellipse fill="none" stroke="black" cx="221.39" cy="-105" rx="130.78" ry="18"/>
<text text-anchor="middle" x="221.39" y="-101.3" font-family="Times,serif" font-size="14.00">bot_shelf_region: Region0</text>
</g>
<!-- v349&#45;&gt;v350 -->
<g id="edge17" class="edge">
<title>v349-&gt;v350</title>
<path fill="none" stroke="black" d="M316.38,-117.47C349.17,-122.84 385.84,-130.46 418.39,-141 432.95,-145.72 434.63,-151.95 449.39,-156 497.97,-169.35 617.82,-178.64 715.13,-184.28"/>
<polygon fill="black" stroke="black" points="715.19,-187.79 725.38,-184.87 715.59,-180.8 715.19,-187.79"/>
<text text-anchor="middle" x="656.89" y="-144.8" font-family="Times,serif" font-size="14.00">bot_shelf_region: Region0 -&gt; bot_shelf_approach: Region0</text>
</g>
<!-- v354 -->
<g id="node13" class="node">
<title>v354</title>
<ellipse fill="none" stroke="black" cx="221.39" cy="-18" rx="125.38" ry="18"/>
<text text-anchor="middle" x="221.39" y="-14.3" font-family="Times,serif" font-size="14.00">bot_shelf_place: Region0</text>
</g>
<!-- v349&#45;&gt;v354 -->
<g id="edge28" class="edge">
<title>v349-&gt;v354</title>
<path fill="none" stroke="black" d="M104.61,-96.85C65.88,-91.86 29.52,-83.39 17.39,-69 13.09,-63.9 13.09,-59.1 17.39,-54 28.8,-40.47 61.62,-32.17 97.69,-27.08"/>
<polygon fill="black" stroke="black" points="98.48,-30.51 107.94,-25.73 97.57,-23.57 98.48,-30.51"/>
<text text-anchor="middle" x="210.89" y="-57.8" font-family="Times,serif" font-size="14.00">bot_shelf_region: Region0 -&gt; bot_shelf_place: Region0</text>
</g>
<!-- v350&#45;&gt;v344 -->
<g id="edge11" class="edge">
<title>v350-&gt;v344</title>
<path fill="none" stroke="black" d="M985.35,-200.29C1047.96,-205.52 1115.71,-214.15 1143.39,-228 1154.88,-233.75 1165.13,-243.39 1173.18,-252.69"/>
<polygon fill="black" stroke="black" points="1170.64,-255.11 1179.66,-260.66 1176.07,-250.69 1170.64,-255.11"/>
<text text-anchor="middle" x="1347.39" y="-231.8" font-family="Times,serif" font-size="14.00">bot_shelf_approach: Region0 -&gt; transition: Region0</text>
</g>
<!-- v350&#45;&gt;v349 -->
<g id="edge16" class="edge">
<title>v350-&gt;v349</title>
<path fill="none" stroke="black" d="M714.22,-190.23C477.38,-188.25 27.55,-181.17 3.39,-156 -1.23,-151.19 -0.93,-146.07 3.39,-141 15.74,-126.51 51.33,-118 90.26,-113"/>
<polygon fill="black" stroke="black" points="90.7,-116.47 100.22,-111.81 89.87,-109.52 90.7,-116.47"/>
<text text-anchor="middle" x="210.89" y="-144.8" font-family="Times,serif" font-size="14.00">bot_shelf_approach: Region0 -&gt; bot_shelf_region: Region0</text>
</g>
<!-- v357 -->
<g id="node16" class="node">
<title>v357</title>
<ellipse fill="none" stroke="black" cx="1086.39" cy="-105" rx="116.18" ry="18"/>
<text text-anchor="middle" x="1086.39" y="-101.3" font-family="Times,serif" font-size="14.00">bot_shelf_pre: Region0</text>
</g>
<!-- v350&#45;&gt;v357 -->
<g id="edge22" class="edge">
<title>v350-&gt;v357</title>
<path fill="none" stroke="black" d="M860.65,-173.57C863.64,-162.54 869.22,-148.93 879.39,-141 895.06,-128.79 934.92,-120.63 975.53,-115.29"/>
<polygon fill="black" stroke="black" points="976.09,-118.75 985.57,-114.02 975.21,-111.8 976.09,-118.75"/>
<text text-anchor="middle" x="1076.39" y="-144.8" font-family="Times,serif" font-size="14.00">bot_shelf_approach: Region0 -&gt; bot_shelf_pre: Region0</text>
</g>
<!-- v351&#45;&gt;v343 -->
<g id="edge3" class="edge">
<title>v351-&gt;v343</title>
<path fill="none" stroke="black" d="M3613.74,-281.63C3671.92,-285.53 3734.32,-297.09 3702.39,-330 3683.93,-349.03 2906.96,-360.53 2639.07,-363.93"/>
<polygon fill="black" stroke="black" points="2638.95,-360.43 2628.99,-364.06 2639.04,-367.43 2638.95,-360.43"/>
<text text-anchor="middle" x="3832.39" y="-318.8" font-family="Times,serif" font-size="14.00">object: Region0 -&gt; home: Region0</text>
</g>
<!-- v352&#45;&gt;v345 -->
<g id="edge25" class="edge">
<title>v352-&gt;v345</title>
<path fill="none" stroke="black" d="M2170.31,-112.91C2208.13,-119.46 2235.85,-132.02 2214.39,-156 2200.32,-171.73 2089.67,-181.2 2003.66,-186.24"/>
<polygon fill="black" stroke="black" points="2003.35,-182.76 1993.57,-186.82 2003.75,-189.75 2003.35,-182.76"/>
<text text-anchor="middle" x="2389.39" y="-144.8" font-family="Times,serif" font-size="14.00">top_shelf_place: Region0 -&gt; top_shelf: Region0</text>
</g>
<!-- v353&#45;&gt;v347 -->
<g id="edge27" class="edge">
<title>v353-&gt;v347</title>
<path fill="none" stroke="black" d="M3454.32,-116.83C3483.15,-122.17 3509.46,-129.92 3518.39,-141 3540.25,-168.12 3506.7,-180.81 3464.77,-186.63"/>
<polygon fill="black" stroke="black" points="3464.33,-183.16 3454.85,-187.87 3465.2,-190.11 3464.33,-183.16"/>
<text text-anchor="middle" x="3696.39" y="-144.8" font-family="Times,serif" font-size="14.00">mid_shelf_place: Region0 -&gt; mid_shelf: Region0</text>
</g>
<!-- v354&#45;&gt;v349 -->
<g id="edge29" class="edge">
<title>v354-&gt;v349</title>
<path fill="none" stroke="black" d="M327.48,-27.73C361.77,-32.91 393.72,-41.1 404.39,-54 408.64,-59.14 408.64,-63.86 404.39,-69 395.04,-80.31 369.32,-88 340.02,-93.21"/>
<polygon fill="black" stroke="black" points="339.25,-89.79 329.96,-94.89 340.4,-96.7 339.25,-89.79"/>
<text text-anchor="middle" x="601.89" y="-57.8" font-family="Times,serif" font-size="14.00">bot_shelf_place: Region0 -&gt; bot_shelf_region: Region0</text>
</g>
<!-- v355&#45;&gt;v346 -->
<g id="edge19" class="edge">
<title>v355-&gt;v346</title>
<path fill="none" stroke="black" d="M2638.67,-200.6C2675.96,-205.67 2711.84,-214.09 2723.39,-228 2727.65,-233.13 2727.95,-238.13 2723.39,-243 2697.74,-270.38 2491.84,-277.15 2343.38,-278.41"/>
<polygon fill="black" stroke="black" points="2343.21,-274.91 2333.24,-278.48 2343.26,-281.91 2343.21,-274.91"/>
<text text-anchor="middle" x="2924.39" y="-231.8" font-family="Times,serif" font-size="14.00">top_shelf_pre: Region0 -&gt; top_shelf_approach: Region0</text>
</g>
<!-- v356&#45;&gt;v348 -->
<g id="edge21" class="edge">
<title>v356-&gt;v348</title>
<path fill="none" stroke="black" d="M4278.31,-194.62C4333.45,-199.32 4380.95,-211.82 4350.39,-243 4332.67,-261.07 3464.67,-259.74 3439.39,-261 3410.55,-262.43 3379.57,-264.57 3350.4,-266.84"/>
<polygon fill="black" stroke="black" points="3349.86,-263.37 3340.17,-267.65 3350.41,-270.35 3349.86,-263.37"/>
<text text-anchor="middle" x="4558.89" y="-231.8" font-family="Times,serif" font-size="14.00">mid_shelf_pre: Region0 -&gt; mid_shelf_approach: Region0</text>
</g>
<!-- v357&#45;&gt;v350 -->
<g id="edge23" class="edge">
<title>v357-&gt;v350</title>
<path fill="none" stroke="black" d="M1188.67,-113.6C1225.96,-118.67 1261.84,-127.09 1273.39,-141 1277.65,-146.13 1277.9,-151.09 1273.39,-156 1255.29,-175.68 1119.87,-184.3 1008.37,-188.07"/>
<polygon fill="black" stroke="black" points="1008.23,-184.58 998.35,-188.4 1008.45,-191.57 1008.23,-184.58"/>
<text text-anchor="middle" x="1474.39" y="-144.8" font-family="Times,serif" font-size="14.00">bot_shelf_pre: Region0 -&gt; bot_shelf_approach: Region0</text>
</g>
</g>
</svg>