<svg xmlns="http://www.w3.org/2000/svg" xmlns:xlink="http://www.w3.org/1999/xlink" width="3042pt" height="479pt" viewBox="0.00 0.00 3041.64 479.00">
<g id="graph0" class="graph" transform="scale(1 1) rotate(0) translate(4 475)">
<title>GraphOfConvexSets</title>
<polygon fill="white" stroke="transparent" points="-4,4 -4,-475 3037.64,-475 3037.64,4 -4,4"/>
<!-- v403 -->
<g id="node1" class="node">
<title>v403</title>
<ellipse fill="none" stroke="black" cx="1309.64" cy="-453" rx="77.19" ry="18"/>
<text text-anchor="middle" x="1309.64" y="-449.3" font-family="Times,serif" font-size="14.00">start: Region0</text>
</g>
<!-- v404 -->
<g id="node2" class="node">
<title>v404</title>
<ellipse fill="none" stroke="black" cx="1309.64" cy="-366" rx="79.89" ry="18"/>
<text text-anchor="middle" x="1309.64" y="-362.3" font-family="Times,serif" font-size="14.00">home: Region0</text>
</g>
<!-- v403&#45;&gt;v404 -->
<g id="edge1" class="edge">
<title>v403-&gt;v404</title>
<path fill="none" stroke="black" d="M1309.64,-434.8C1309.64,-423.16 1309.64,-407.55 1309.64,-394.24"/>
<polygon fill="black" stroke="black" points="1313.14,-394.18 1309.64,-384.18 1306.14,-394.18 1313.14,-394.18"/>
<text text-anchor="middle" x="1427.14" y="-405.8" font-family="Times,serif" font-size="14.00">start: Region0 -&gt; home: Region0</text>
</g>
<!-- v405 -->
<g id="node3" class="node">
<title>v405</title>
<ellipse fill="none" stroke="black" cx="208.64" cy="-279" rx="100.18" ry="18"/>
<text text-anchor="middle" x="208.64" y="-275.3" font-family="Times,serif" font-size="14.00">transition: Region0</text>
</g>
<!-- v404&#45;&gt;v405 -->
<g id="edge8" class="edge">
<title>v404-&gt;v405</title>
<path fill="none" stroke="black" d="M1229.47,-365.52C978.27,-366.78 220.91,-367.42 184.64,-330 177.9,-323.05 180.15,-313.85 185.37,-305.24"/>
<polygon fill="black" stroke="black" points="188.36,-307.09 191.36,-296.93 182.68,-303 188.36,-307.09"/>
<text text-anchor="middle" x="319.64" y="-318.8" font-family="Times,serif" font-size="14.00">home: Region0 -&gt; transition: Region0</text>
</g>
<!-- v407 -->
<g id="node5" class="node">
<title>v407</title>
<ellipse fill="none" stroke="black" cx="1012.64" cy="-279" rx="143.77" ry="18"/>
<text text-anchor="middle" x="1012.64" y="-275.3" font-family="Times,serif" font-size="14.00">top_shelf_approach: Region0</text>
</g>
<!-- v404&#45;&gt;v407 -->
<g id="edge4" class="edge">
<title>v404-&gt;v407</title>
<path fill="none" stroke="black" d="M1229.52,-365.69C1086.97,-366.08 801.3,-362.71 770.64,-330 766.08,-325.14 766.27,-320.04 770.64,-315 784.27,-299.26 822.99,-290.44 865.58,-285.55"/>
<polygon fill="black" stroke="black" points="866.02,-289.03 875.59,-284.48 865.27,-282.07 866.02,-289.03"/>
<text text-anchor="middle" x="939.14" y="-318.8" font-family="Times,serif" font-size="14.00">home: Region0 -&gt; top_shelf_approach: Region0</text>
</g>
<!-- v409 -->
<g id="node7" class="node">
<title>v409</title>
<ellipse fill="none" stroke="black" cx="1805.64" cy="-279" rx="146.47" ry="18"/>
<text text-anchor="middle" x="1805.64" y="-275.3" font-family="Times,serif" font-size="14.00">mid_shelf_approach: Region0</text>
</g>
<!-- v404&#45;&gt;v409 -->
<g id="edge6" class="edge">
<title>v404-&gt;v409</title>
<path fill="none" stroke="black" d="M1375.84,-355.81C1404.76,-350.42 1438.63,-342.19 1467.64,-330 1478.89,-325.27 1479.15,-319.12 1490.64,-315 1523.16,-303.34 1599.57,-294.7 1668.98,-288.92"/>
<polygon fill="black" stroke="black" points="1669.49,-292.39 1679.17,-288.09 1668.92,-285.41 1669.49,-292.39"/>
<text text-anchor="middle" x="1661.14" y="-318.8" font-family="Times,serif" font-size="14.00">home: Region0 -&gt; mid_shelf_approach: Region0</text>
</g>
<!-- v412 -->
<g id="node10" class="node">
<title>v412</title>
<ellipse fill="none" stroke="black" cx="2484.64" cy="-279" rx="83.39" ry="18"/>
<text text-anchor="middle" x="2484.64" y="-275.3" font-family="Times,serif" font-size="14.00">object: Region0</text>
</g>
<!-- v404&#45;&gt;v412 -->
<g id="edge2" class="edge">
<title>v404-&gt;v412</title>
<path fill="none" stroke="black" d="M1389.7,-365.3C1575.61,-365.42 2032.06,-362.29 2181.64,-330 2198.98,-326.26 2201.48,-319.53 2218.64,-315 2276.69,-299.68 2343.73,-290.91 2395.98,-285.99"/>
<polygon fill="black" stroke="black" points="2396.58,-289.45 2406.22,-285.05 2395.95,-282.48 2396.58,-289.45"/>
<text text-anchor="middle" x="2340.64" y="-318.8" font-family="Times,serif" font-size="14.00">home: Region0 -&gt; object: Region0</text>
</g>
<!-- v405&#45;&gt;v404 -->
<g id="edge9" class="edge">
<title>v405-&gt;v404</title>
<path fill="none" stroke="black" d="M296.68,-287.65C344.01,-292.98 403.07,-301.6 454.64,-315 472.61,-319.67 475.46,-326.22 493.64,-330 629.97,-358.35 1037.44,-363.8 1219.75,-364.8"/>
<polygon fill="black" stroke="black" points="1219.82,-368.3 1229.84,-364.85 1219.86,-361.3 1219.82,-368.3"/>
<text text-anchor="middle" x="628.64" y="-318.8" font-family="Times,serif" font-size="14.00">transition: Region0 -&gt; home: Region0</text>
</g>
<!-- v411 -->
<g id="node9" class="node">
<title>v411</title>
<ellipse fill="none" stroke="black" cx="143.64" cy="-192" rx="143.77" ry="18"/>
<text text-anchor="middle" x="143.64" y="-188.3" font-family="Times,serif" font-size="14.00">bot_shelf_approach: Region0</text>
</g>
<!-- v405&#45;&gt;v411 -->
<g id="edge10" class="edge">
<title>v405-&gt;v411</title>
<path fill="none" stroke="black" d="M131.86,-267.35C103.91,-261.78 77.08,-253.81 68.64,-243 59.47,-231.25 67.5,-221.33 81.2,-213.49"/>
<polygon fill="black" stroke="black" points="83,-216.5 90.36,-208.89 79.86,-210.25 83,-216.5"/>
<text text-anchor="middle" x="252.64" y="-231.8" font-family="Times,serif" font-size="14.00">transition: Region0 -&gt; bot_shelf_approach: Region0</text>
</g>
<!-- v406 -->
<g id="node4" class="node">
<title>v406</title>
<ellipse fill="none" stroke="black" cx="1023.64" cy="-192" rx="96.68" ry="18"/>
<text text-anchor="middle" x="1023.64" y="-188.3" font-family="Times,serif" font-size="14.00">top_shelf: Region0</text>
</g>
<!-- v406&#45;&gt;v407 -->
<g id="edge13" class="edge">
<title>v406-&gt;v407</title>
<path fill="none" stroke="black" d="M1119.78,-194.65C1221.36,-198.17 1363.02,-209.11 1332.64,-243 1320.23,-256.84 1234.27,-265.75 1154.57,-271.11"/>
<polygon fill="black" stroke="black" points="1154.13,-267.63 1144.38,-271.78 1154.59,-274.62 1154.13,-267.63"/>
<text text-anchor="middle" x="1519.14" y="-231.8" font-family="Times,serif" font-size="14.00">top_shelf: Region0 -&gt; top_shelf_approach: Region0</text>
</g>
<!-- v413 -->
<g id="node11" class="node">
<title>v413</title>
<ellipse fill="none" stroke="black" cx="1190.64" cy="-105" rx="125.38" ry="18"/>
<text text-anchor="middle" x="1190.64" y="-101.3" font-family="Times,serif" font-size="14.00">top_shelf_place: Region0</text>
</g>
<!-- v406&#45;&gt;v413 -->
<g id="edge18" class="edge">
<title>v406-&gt;v413</title>
<path fill="none" stroke="black" d="M1013.86,-174C1009.2,-163.44 1006.11,-150.17 1013.64,-141 1022.79,-129.86 1048.27,-122.2 1077.13,-116.97"/>
<polygon fill="black" stroke="black" points="1077.76,-120.41 1087.03,-115.28 1076.59,-113.51 1077.76,-120.41"/>
<text text-anchor="middle" x="1180.64" y="-144.8" font-family="Times,serif" font-size="14.00">top_shelf: Region0 -&gt; top_shelf_place: Region0</text>
</g>
<!-- v407&#45;&gt;v404 -->
<g id="edge5" class="edge">
<title>v407-&gt;v404</title>
<path fill="none" stroke="black" d="M1062.35,-295.93C1077.21,-301.32 1093.34,-307.82 1107.64,-315 1118.54,-320.48 1119.33,-325.41 1130.64,-330 1161.61,-342.57 1197.48,-350.73 1228.94,-355.97"/>
<polygon fill="black" stroke="black" points="1228.56,-359.45 1238.99,-357.57 1229.67,-352.54 1228.56,-359.45"/>
<text text-anchor="middle" x="1299.14" y="-318.8" font-family="Times,serif" font-size="14.00">top_shelf_approach: Region0 -&gt; home: Region0</text>
</g>
<!-- v407&#45;&gt;v406 -->
<g id="edge12" class="edge">
<title>v407-&gt;v406</title>
<path fill="none" stroke="black" d="M984.14,-261.33C972.42,-252.2 962.97,-240.27 969.64,-228 972.27,-223.15 975.9,-218.87 980.04,-215.12"/>
<polygon fill="black" stroke="black" points="982.22,-217.86 987.94,-208.94 977.9,-212.35 982.22,-217.86"/>
<text text-anchor="middle" x="1151.14" y="-231.8" font-family="Times,serif" font-size="14.00">top_shelf_approach: Region0 -&gt; top_shelf: Region0</text>
</g>
<!-- v408 -->
<g id="node6" class="node">
<title>v408</title>
<ellipse fill="none" stroke="black" cx="1977.64" cy="-192" rx="98.58" ry="18"/>
<text text-anchor="middle" x="1977.64" y="-188.3" font-family="Times,serif" font-size="14.00">mid_shelf: Region0</text>
</g>
<!-- v408&#45;&gt;v409 -->
<g id="edge15" class="edge">
<title>v408-&gt;v409</title>
<path fill="none" stroke="black" d="M2075.64,-194.62C2130.08,-198.96 2181.51,-211.07 2152.64,-243 2138.8,-258.3 2041.4,-267.23 1953.31,-272.23"/>
<polygon fill="black" stroke="black" points="1952.96,-268.75 1943.17,-272.79 1953.35,-275.73 1952.96,-268.75"/>
<text text-anchor="middle" x="2345.64" y="-231.8" font-family="Times,serif" font-size="14.00">mid_shelf: Region0 -&gt; mid_shelf_approach: Region0</text>
</g>
<!-- v414 -->
<g id="node12" class="node">
<title>v414</title>
<ellipse fill="none" stroke="black" cx="2034.64" cy="-105" rx="128.08" ry="18"/>
<text text-anchor="middle" x="2034.64" y="-101.3" font-family="Times,serif" font-size="14.00">mid_shelf_place: Region0</text>
</g>
<!-- v408&#45;&gt;v414 -->
<g id="edge20" class="edge">
<title>v408-&gt;v414</title>
<path fill="none" stroke="black" d="M1895.23,-181.94C1862.27,-174.92 1835.84,-162.57 1853.64,-141 1862.97,-129.69 1888.82,-121.99 1918.16,-116.77"/>
<polygon fill="black" stroke="black" points="1918.93,-120.19 1928.22,-115.09 1917.78,-113.28 1918.93,-120.19"/>
<text text-anchor="middle" x="2024.64" y="-144.8" font-family="Times,serif" font-size="14.00">mid_shelf: Region0 -&gt; mid_shelf_place: Region0</text>
</g>
<!-- v409&#45;&gt;v404 -->
<g id="edge7" class="edge">
<title>v409-&gt;v404</title>
<path fill="none" stroke="black" d="M1824.24,-297.19C1833.27,-307.57 1840.46,-320.57 1831.64,-330 1802.87,-360.76 1541.76,-365.32 1400.09,-365.5"/>
<polygon fill="black" stroke="black" points="1399.68,-362 1389.68,-365.5 1399.69,-369 1399.68,-362"/>
<text text-anchor="middle" x="2007.14" y="-318.8" font-family="Times,serif" font-size="14.00">mid_shelf_approach: Region0 -&gt; home: Region0</text>
</g>
<!-- v409&#45;&gt;v408 -->
<g id="edge14" class="edge">
<title>v409-&gt;v408</title>
<path fill="none" stroke="black" d="M1788.98,-260.98C1780.91,-250.67 1774.54,-237.67 1782.64,-228 1795.15,-213.04 1834.84,-204.47 1875.18,-199.56"/>
<polygon fill="black" stroke="black" points="1875.61,-203.03 1885.15,-198.42 1874.82,-196.08 1875.61,-203.03"/>
<text text-anchor="middle" x="1967.64" y="-231.8" font-family="Times,serif" font-size="14.00">mid_shelf_approach: Region0 -&gt; mid_shelf: Region0</text>
</g>
<!-- v410 -->
<g id="node8" class="node">
<title>v410</title>
<ellipse fill="none" stroke="black" cx="272.64" cy="-105" rx="130.78" ry="18"/>
<text text-anchor="middle" x="272.64" y="-101.3" font-family="Times,serif" font-size="14.00">bot_shelf_region: Region0</text>
</g>
<!-- v410&#45;&gt;v411 -->
<g id="edge17" class="edge">
<title>v410-&gt;v411</title>
<path fill="none" stroke="black" d="M386.78,-113.79C423.68,-118.86 458.09,-127.22 469.64,-141 473.92,-146.11 474.09,-151.04 469.64,-156 456.91,-170.16 368.46,-179.08 286.91,-184.37"/>
<polygon fill="black" stroke="black" points="286.25,-180.9 276.49,-185.03 286.69,-187.89 286.25,-180.9"/>
<text text-anchor="middle" x="681.14" y="-144.8" font-family="Times,serif" font-size="14.00">bot_shelf_region: Region0 -&gt; bot_shelf_approach: Region0</text>
</g>
<!-- v415 -->
<g id="node13" class="node">
<title>v415</title>
<ellipse fill="none" stroke="black" cx="272.64" cy="-18" rx="125.38" ry="18"/>
<text text-anchor="middle" x="272.64" y="-14.3" font-family="Times,serif" font-size="14.00">bot_shelf_place: Region0</text>
</g>
<!-- v410&#45;&gt;v415 -->
<g id="edge22" class="edge">
<title>v410-&gt;v415</title>
<path fill="none" stroke="black" d="M155.86,-96.85C117.13,-91.86 80.77,-83.39 68.64,-69 64.34,-63.9 64.34,-59.1 68.64,-54 80.04,-40.47 112.87,-32.17 148.94,-27.08"/>
<polygon fill="black" stroke="black" points="149.73,-30.51 159.19,-25.73 148.82,-23.57 149.73,-30.51"/>
<text text-anchor="middle" x="262.14" y="-57.8" font-family="Times,serif" font-size="14.00">bot_shelf_region: Region0 -&gt; bot_shelf_place: Region0</text>
</g>
<!-- v411&#45;&gt;v405 -->
<g id="edge11" class="edge">
<title>v411-&gt;v405</title>
<path fill="none" stroke="black" d="M270.85,-200.43C344.61,-206.08 425.18,-215.09 436.64,-228 441.06,-232.99 440.98,-237.94 436.64,-243 420.65,-261.63 367.7,-270.44 316.85,-274.57"/>
<polygon fill="black" stroke="black" points="316.43,-271.09 306.72,-275.33 316.95,-278.07 316.43,-271.09"/>
<text text-anchor="middle" x="624.64" y="-231.8" font-family="Times,serif" font-size="14.00">bot_shelf_approach: Region0 -&gt; transition: Region0</text>
</g>
<!-- v411&#45;&gt;v410 -->
<g id="edge16" class="edge">
<title>v411-&gt;v410</title>
<path fill="none" stroke="black" d="M79.19,-175.89C57.47,-167.77 41.65,-156.24 54.64,-141 66.99,-126.51 102.57,-118 141.51,-113"/>
<polygon fill="black" stroke="black" points="141.95,-116.47 151.46,-111.81 141.12,-109.52 141.95,-116.47"/>
<text text-anchor="middle" x="262.14" y="-144.8" font-family="Times,serif" font-size="14.00">bot_shelf_approach: Region0 -&gt; bot_shelf_region: Region0</text>
</g>
<!-- v412&#45;&gt;v404 -->
<g id="edge3" class="edge">
<title>v412-&gt;v404</title>
<path fill="none" stroke="black" d="M2481.84,-297.41C2479.03,-308.72 2473.49,-322.68 2462.64,-330 2418.86,-359.52 1664.45,-364.16 1400.19,-364.87"/>
<polygon fill="black" stroke="black" points="1399.85,-361.37 1389.86,-364.9 1399.87,-368.37 1399.85,-361.37"/>
<text text-anchor="middle" x="2597.64" y="-318.8" font-family="Times,serif" font-size="14.00">object: Region0 -&gt; home: Region0</text>
</g>
<!-- v413&#45;&gt;v406 -->
<g id="edge19" class="edge">
<title>v413-&gt;v406</title>
<path fill="none" stroke="black" d="M1303.59,-112.95C1341.42,-119.5 1369.14,-132.05 1347.64,-156 1332.94,-172.37 1216.55,-181.76 1127.43,-186.62"/>
<polygon fill="black" stroke="black" points="1127.05,-183.14 1117.25,-187.16 1127.43,-190.13 1127.05,-183.14"/>
<text text-anchor="middle" x="1522.64" y="-144.8" font-family="Times,serif" font-size="14.00">top_shelf_place: Region0 -&gt; top_shelf: Region0</text>
</g>
<!-- v414&#45;&gt;v408 -->
<g id="edge21" class="edge">
<title>v414-&gt;v408</title>
<path fill="none" stroke="black" d="M2151.87,-112.24C2189.49,-118.7 2216.62,-131.39 2195.64,-156 2180.67,-173.57 2131.53,-182.35 2083.69,-186.73"/>
<polygon fill="black" stroke="black" points="2083.19,-183.26 2073.52,-187.6 2083.78,-190.23 2083.19,-183.26"/>
<text text-anchor="middle" x="2373.64" y="-144.8" font-family="Times,serif" font-size="14.00">mid_shelf_place: Region0 -&gt; mid_shelf: Region0</text>
</g>
<!-- v415&#45;&gt;v410 -->
<g id="edge23" class="edge">
<title>v415-&gt;v410</title>
<path fill="none" stroke="black" d="M378.73,-27.73C413.02,-32.91 444.97,-41.1 455.64,-54 459.89,-59.14 459.89,-63.86 455.64,-69 446.29,-80.31 420.57,-88 391.27,-93.21"/>
<polygon fill="black" stroke="black" points="390.5,-89.79 381.21,-94.89 391.65,-96.7 390.5,-89.79"/>
<text text-anchor="middle" x="653.14" y="-57.8" font-family="Times,serif" font-size="14.00">bot_shelf_place: Region0 -&gt; bot_shelf_region: Region0</text>
</g>
<!-- v439 -->
<g id="node14" class="node">
<title>v439</title>
<ellipse fill="none" stroke="black" cx="2751.64" cy="-366" rx="111.28" ry="18"/>
<text text-anchor="middle" x="2751.64" y="-362.3" font-family="Times,serif" font-size="14.00">object_point: Region0</text>
</g>
<!-- v439&#45;&gt;v412 -->
<g id="edge24" class="edge">
<title>v439-&gt;v412</title>
<path fill="none" stroke="black" d="M2748.57,-347.97C2745.64,-336.82 2740.06,-322.91 2729.64,-315 2705.77,-296.89 2635.22,-288.13 2575.92,-283.9"/>
<polygon fill="black" stroke="black" points="2575.97,-280.39 2565.76,-283.21 2575.5,-287.38 2575.97,-280.39"/>
<text text-anchor="middle" x="2887.64" y="-318.8" font-family="Times,serif" font-size="14.00">object_point: Region0 -&gt; object: Region0</text>
</g>
</g>
</svg>