<?xml version="1.0" encoding="UTF-8" standalone="no"?>
<!DOCTYPE svg PUBLIC "-//W3C//DTD SVG 1.1//EN"
 "http://www.w3.org/Graphics/SVG/1.1/DTD/svg11.dtd">
<!-- Generated by graphviz version 2.43.0 (0)
 -->
<!-- Title: pastafarianism Pages: 1 -->
<svg width="508pt" height="404pt"
 viewBox="0.00 0.00 508.24 404.00" xmlns="http://www.w3.org/2000/svg" xmlns:xlink="http://www.w3.org/1999/xlink">
<g id="graph0" class="graph" transform="scale(1 1) rotate(0) translate(4 400)">
<title>pastafarianism</title>
<polygon fill="white" stroke="transparent" points="-4,4 -4,-400 504.24,-400 504.24,4 -4,4"/>
<!-- root -->
<g id="node1" class="node">
<title>root</title>
<polygon fill="orange" stroke="black" points="273.78,-396 219.78,-396 219.78,-360 273.78,-360 273.78,-396"/>
<text text-anchor="middle" x="246.78" y="-375.8" font-family="Times,serif" font-size="9.00">Ⓜ root</text>
</g>
<!-- detect_all_objects -->
<g id="node2" class="node">
<title>detect_all_objects</title>
<polygon fill="cyan" stroke="black" points="231.51,-298.54 231.51,-313.46 195.35,-324 144.21,-324 108.04,-313.46 108.04,-298.54 144.21,-288 195.35,-288 231.51,-298.54"/>
<text text-anchor="middle" x="169.78" y="-303.8" font-family="Times,serif" font-size="9.00">detect_all_objects</text>
</g>
<!-- root&#45;&gt;detect_all_objects -->
<g id="edge1" class="edge">
<title>root&#45;&gt;detect_all_objects</title>
<path fill="none" stroke="black" d="M227.74,-359.7C218.23,-351.05 206.57,-340.45 196.21,-331.03"/>
<polygon fill="black" stroke="black" points="198.35,-328.24 188.59,-324.1 193.64,-333.42 198.35,-328.24"/>
</g>
<!-- plan_and_execute_trajectory -->
<g id="node10" class="node">
<title>plan_and_execute_trajectory</title>
<polygon fill="orange" stroke="black" points="398.28,-324 249.28,-324 249.28,-288 398.28,-288 398.28,-324"/>
<text text-anchor="middle" x="323.78" y="-303.8" font-family="Times,serif" font-size="9.00">plan_and_execute_trajectory</text>
</g>
<!-- root&#45;&gt;plan_and_execute_trajectory -->
<g id="edge9" class="edge">
<title>root&#45;&gt;plan_and_execute_trajectory</title>
<path fill="none" stroke="black" d="M265.81,-359.7C275.32,-351.05 286.98,-340.45 297.35,-331.03"/>
<polygon fill="black" stroke="black" points="299.92,-333.42 304.96,-324.1 295.21,-328.24 299.92,-333.42"/>
</g>
<!-- is_objects_detected -->
<g id="node3" class="node">
<title>is_objects_detected</title>
<ellipse fill="gray" stroke="black" cx="61.78" cy="-234" rx="61.55" ry="18"/>
<text text-anchor="middle" x="61.78" y="-231.8" font-family="Times,serif" font-size="9.00">is_objects_detected</text>
</g>
<!-- detect_all_objects&#45;&gt;is_objects_detected -->
<g id="edge2" class="edge">
<title>detect_all_objects&#45;&gt;is_objects_detected</title>
<path fill="none" stroke="black" d="M143.63,-288.05C128.78,-278.43 110.05,-266.29 94.26,-256.05"/>
<polygon fill="black" stroke="black" points="96.13,-253.09 85.83,-250.59 92.32,-258.97 96.13,-253.09"/>
</g>
<!-- loop_detect -->
<g id="node4" class="node">
<title>loop_detect</title>
<ellipse fill="ghostwhite" stroke="black" cx="181.78" cy="-234" rx="40.33" ry="18"/>
<text text-anchor="middle" x="181.78" y="-231.8" font-family="Times,serif" font-size="9.00">loop_detect</text>
</g>
<!-- detect_all_objects&#45;&gt;loop_detect -->
<g id="edge3" class="edge">
<title>detect_all_objects&#45;&gt;loop_detect</title>
<path fill="none" stroke="black" d="M172.74,-287.7C174.07,-279.98 175.65,-270.71 177.13,-262.11"/>
<polygon fill="black" stroke="black" points="180.6,-262.55 178.84,-252.1 173.7,-261.37 180.6,-262.55"/>
</g>
<!-- retry_on_detect_fail -->
<g id="node5" class="node">
<title>retry_on_detect_fail</title>
<ellipse fill="ghostwhite" stroke="black" cx="181.78" cy="-162" rx="62.21" ry="18"/>
<text text-anchor="middle" x="181.78" y="-159.8" font-family="Times,serif" font-size="9.00">retry_on_detect_fail</text>
</g>
<!-- loop_detect&#45;&gt;retry_on_detect_fail -->
<g id="edge4" class="edge">
<title>loop_detect&#45;&gt;retry_on_detect_fail</title>
<path fill="none" stroke="black" d="M181.78,-215.7C181.78,-207.98 181.78,-198.71 181.78,-190.11"/>
<polygon fill="black" stroke="black" points="185.28,-190.1 181.78,-180.1 178.28,-190.1 185.28,-190.1"/>
</g>
<!-- detect_one_object -->
<g id="node6" class="node">
<title>detect_one_object</title>
<polygon fill="orange" stroke="black" points="238.78,-108 124.78,-108 124.78,-72 238.78,-72 238.78,-108"/>
<text text-anchor="middle" x="181.78" y="-87.8" font-family="Times,serif" font-size="9.00">Ⓜ detect_one_object</text>
</g>
<!-- retry_on_detect_fail&#45;&gt;detect_one_object -->
<g id="edge5" class="edge">
<title>retry_on_detect_fail&#45;&gt;detect_one_object</title>
<path fill="none" stroke="black" d="M181.78,-143.7C181.78,-135.98 181.78,-126.71 181.78,-118.11"/>
<polygon fill="black" stroke="black" points="185.28,-118.1 181.78,-108.1 178.28,-118.1 185.28,-118.1"/>
</g>
<!-- ask_for_prompt -->
<g id="node7" class="node">
<title>ask_for_prompt</title>
<ellipse fill="gray" stroke="black" cx="61.78" cy="-18" rx="50.46" ry="18"/>
<text text-anchor="middle" x="61.78" y="-15.8" font-family="Times,serif" font-size="9.00">ask_for_prompt</text>
</g>
<!-- detect_one_object&#45;&gt;ask_for_prompt -->
<g id="edge6" class="edge">
<title>detect_one_object&#45;&gt;ask_for_prompt</title>
<path fill="none" stroke="black" d="M152.42,-71.88C135.4,-61.95 113.89,-49.4 96.09,-39.02"/>
<polygon fill="black" stroke="black" points="97.57,-35.83 87.17,-33.81 94.04,-41.88 97.57,-35.83"/>
</g>
<!-- grounding_dino -->
<g id="node8" class="node">
<title>grounding_dino</title>
<ellipse fill="gray" stroke="black" cx="181.78" cy="-18" rx="51.92" ry="18"/>
<text text-anchor="middle" x="181.78" y="-15.8" font-family="Times,serif" font-size="9.00">grounding_dino</text>
</g>
<!-- detect_one_object&#45;&gt;grounding_dino -->
<g id="edge7" class="edge">
<title>detect_one_object&#45;&gt;grounding_dino</title>
<path fill="none" stroke="black" d="M181.78,-71.7C181.78,-63.98 181.78,-54.71 181.78,-46.11"/>
<polygon fill="black" stroke="black" points="185.28,-46.1 181.78,-36.1 178.28,-46.1 185.28,-46.1"/>
</g>
<!-- confirm_detection -->
<g id="node9" class="node">
<title>confirm_detection</title>
<ellipse fill="gray" stroke="black" cx="309.78" cy="-18" rx="57.97" ry="18"/>
<text text-anchor="middle" x="309.78" y="-15.8" font-family="Times,serif" font-size="9.00">confirm_detection</text>
</g>
<!-- detect_one_object&#45;&gt;confirm_detection -->
<g id="edge8" class="edge">
<title>detect_one_object&#45;&gt;confirm_detection</title>
<path fill="none" stroke="black" d="M213.09,-71.88C231.28,-61.93 254.29,-49.35 273.29,-38.95"/>
<polygon fill="black" stroke="black" points="275.17,-41.91 282.26,-34.05 271.81,-35.77 275.17,-41.91"/>
</g>
<!-- plan_trajectory -->
<g id="node11" class="node">
<title>plan_trajectory</title>
<ellipse fill="gray" stroke="black" cx="312.78" cy="-234" rx="50.46" ry="18"/>
<text text-anchor="middle" x="312.78" y="-231.8" font-family="Times,serif" font-size="9.00">plan_trajectory</text>
</g>
<!-- plan_and_execute_trajectory&#45;&gt;plan_trajectory -->
<g id="edge10" class="edge">
<title>plan_and_execute_trajectory&#45;&gt;plan_trajectory</title>
<path fill="none" stroke="black" d="M321.06,-287.7C319.85,-279.98 318.39,-270.71 317.04,-262.11"/>
<polygon fill="black" stroke="black" points="320.47,-261.44 315.46,-252.1 313.56,-262.53 320.47,-261.44"/>
</g>
<!-- execute_trajectory -->
<g id="node12" class="node">
<title>execute_trajectory</title>
<ellipse fill="gray" stroke="black" cx="440.78" cy="-234" rx="59.43" ry="18"/>
<text text-anchor="middle" x="440.78" y="-231.8" font-family="Times,serif" font-size="9.00">execute_trajectory</text>
</g>
<!-- plan_and_execute_trajectory&#45;&gt;execute_trajectory -->
<g id="edge11" class="edge">
<title>plan_and_execute_trajectory&#45;&gt;execute_trajectory</title>
<path fill="none" stroke="black" d="M352.4,-287.88C368.76,-278.09 389.38,-265.75 406.59,-255.45"/>
<polygon fill="black" stroke="black" points="408.45,-258.42 415.24,-250.28 404.86,-252.41 408.45,-258.42"/>
</g>
</g>
</svg>
