<?xml version="1.0" encoding="UTF-8" standalone="no"?>
<!DOCTYPE svg PUBLIC "-//W3C//DTD SVG 1.1//EN"
 "http://www.w3.org/Graphics/SVG/1.1/DTD/svg11.dtd">
<!-- Generated by graphviz version 2.43.0 (0)
 -->
<!-- Title: pastafarianism Pages: 1 -->
<svg width="480pt" height="404pt"
 viewBox="0.00 0.00 480.39 404.00" xmlns="http://www.w3.org/2000/svg" xmlns:xlink="http://www.w3.org/1999/xlink">
<g id="graph0" class="graph" transform="scale(1 1) rotate(0) translate(4 400)">
<title>pastafarianism</title>
<polygon fill="white" stroke="transparent" points="-4,4 -4,-400 476.39,-400 476.39,4 -4,4"/>
<!-- root -->
<g id="node1" class="node">
<title>root</title>
<polygon fill="orange" stroke="black" points="273.78,-396 219.78,-396 219.78,-360 273.78,-360 273.78,-396"/>
<text text-anchor="middle" x="246.78" y="-375.8" font-family="Times,serif" font-size="9.00">Ⓜ root</text>
</g>
<!-- detect_all_objects -->
<g id="node2" class="node">
<title>detect_all_objects</title>
<polygon fill="cyan" stroke="black" points="231.51,-298.54 231.51,-313.46 195.35,-324 144.21,-324 108.04,-313.46 108.04,-298.54 144.21,-288 195.35,-288 231.51,-298.54"/>
<text text-anchor="middle" x="169.78" y="-303.8" font-family="Times,serif" font-size="9.00">detect_all_objects</text>
</g>
<!-- root&#45;&gt;detect_all_objects -->
<g id="edge1" class="edge">
<title>root&#45;&gt;detect_all_objects</title>
<path fill="none" stroke="black" d="M227.74,-359.7C218.23,-351.05 206.57,-340.45 196.21,-331.03"/>
<polygon fill="black" stroke="black" points="198.35,-328.24 188.59,-324.1 193.64,-333.42 198.35,-328.24"/>
</g>
<!-- plan_and_execute_trajectory -->
<g id="node9" class="node">
<title>plan_and_execute_trajectory</title>
<polygon fill="orange" stroke="black" points="398.28,-324 249.28,-324 249.28,-288 398.28,-288 398.28,-324"/>
<text text-anchor="middle" x="323.78" y="-303.8" font-family="Times,serif" font-size="9.00">plan_and_execute_trajectory</text>
</g>
<!-- root&#45;&gt;plan_and_execute_trajectory -->
<g id="edge8" class="edge">
<title>root&#45;&gt;plan_and_execute_trajectory</title>
<path fill="none" stroke="black" d="M265.81,-359.7C275.32,-351.05 286.98,-340.45 297.35,-331.03"/>
<polygon fill="black" stroke="black" points="299.92,-333.42 304.96,-324.1 295.21,-328.24 299.92,-333.42"/>
</g>
<!-- is_objects_detected -->
<g id="node3" class="node">
<title>is_objects_detected</title>
<ellipse fill="gray" stroke="black" cx="61.78" cy="-234" rx="61.55" ry="18"/>
<text text-anchor="middle" x="61.78" y="-231.8" font-family="Times,serif" font-size="9.00">is_objects_detected</text>
</g>
<!-- detect_all_objects&#45;&gt;is_objects_detected -->
<g id="edge2" class="edge">
<title>detect_all_objects&#45;&gt;is_objects_detected</title>
<path fill="none" stroke="black" d="M143.63,-288.05C128.78,-278.43 110.05,-266.29 94.26,-256.05"/>
<polygon fill="black" stroke="black" points="96.13,-253.09 85.83,-250.59 92.32,-258.97 96.13,-253.09"/>
</g>
<!-- loop_detect -->
<g id="node4" class="node">
<title>loop_detect</title>
<ellipse fill="ghostwhite" stroke="black" cx="181.78" cy="-234" rx="40.33" ry="18"/>
<text text-anchor="middle" x="181.78" y="-231.8" font-family="Times,serif" font-size="9.00">loop_detect</text>
</g>
<!-- detect_all_objects&#45;&gt;loop_detect -->
<g id="edge3" class="edge">
<title>detect_all_objects&#45;&gt;loop_detect</title>
<path fill="none" stroke="black" d="M172.74,-287.7C174.07,-279.98 175.65,-270.71 177.13,-262.11"/>
<polygon fill="black" stroke="black" points="180.6,-262.55 178.84,-252.1 173.7,-261.37 180.6,-262.55"/>
</g>
<!-- retry_on_detect_fail -->
<g id="node5" class="node">
<title>retry_on_detect_fail</title>
<ellipse fill="ghostwhite" stroke="black" cx="181.78" cy="-162" rx="62.21" ry="18"/>
<text text-anchor="middle" x="181.78" y="-159.8" font-family="Times,serif" font-size="9.00">retry_on_detect_fail</text>
</g>
<!-- loop_detect&#45;&gt;retry_on_detect_fail -->
<g id="edge4" class="edge">
<title>loop_detect&#45;&gt;retry_on_detect_fail</title>
<path fill="none" stroke="black" d="M181.78,-215.7C181.78,-207.98 181.78,-198.71 181.78,-190.11"/>
<polygon fill="black" stroke="black" points="185.28,-190.1 181.78,-180.1 178.28,-190.1 185.28,-190.1"/>
</g>
<!-- detect_one_object -->
<g id="node6" class="node">
<title>detect_one_object</title>
<polygon fill="orange" stroke="black" points="238.78,-108 124.78,-108 124.78,-72 238.78,-72 238.78,-108"/>
<text text-anchor="middle" x="181.78" y="-87.8" font-family="Times,serif" font-size="9.00">Ⓜ detect_one_object</text>
</g>
<!-- retry_on_detect_fail&#45;&gt;detect_one_object -->
<g id="edge5" class="edge">
<title>retry_on_detect_fail&#45;&gt;detect_one_object</title>
<path fill="none" stroke="black" d="M181.78,-143.7C181.78,-135.98 181.78,-126.71 181.78,-118.11"/>
<polygon fill="black" stroke="black" points="185.28,-118.1 181.78,-108.1 178.28,-118.1 185.28,-118.1"/>
</g>
<!-- grounded_sam_detect -->
<g id="node7" class="node">
<title>grounded_sam_detect</title>
<ellipse fill="gray" stroke="black" cx="113.78" cy="-18" rx="68.25" ry="18"/>
<text text-anchor="middle" x="113.78" y="-15.8" font-family="Times,serif" font-size="9.00">grounded_sam_detect</text>
</g>
<!-- detect_one_object&#45;&gt;grounded_sam_detect -->
<g id="edge6" class="edge">
<title>detect_one_object&#45;&gt;grounded_sam_detect</title>
<path fill="none" stroke="black" d="M164.97,-71.7C156.53,-63.01 146.17,-52.34 136.98,-42.89"/>
<polygon fill="black" stroke="black" points="139.4,-40.36 129.92,-35.62 134.38,-45.23 139.4,-40.36"/>
</g>
<!-- get_grasp_pose -->
<g id="node8" class="node">
<title>get_grasp_pose</title>
<ellipse fill="gray" stroke="black" cx="250.78" cy="-18" rx="50.61" ry="18"/>
<text text-anchor="middle" x="250.78" y="-15.8" font-family="Times,serif" font-size="9.00">get_grasp_pose</text>
</g>
<!-- detect_one_object&#45;&gt;get_grasp_pose -->
<g id="edge7" class="edge">
<title>detect_one_object&#45;&gt;get_grasp_pose</title>
<path fill="none" stroke="black" d="M198.83,-71.7C207.52,-62.88 218.22,-52.03 227.64,-42.47"/>
<polygon fill="black" stroke="black" points="230.34,-44.72 234.86,-35.14 225.35,-39.81 230.34,-44.72"/>
</g>
<!-- plan_trajectory -->
<g id="node10" class="node">
<title>plan_trajectory</title>
<ellipse fill="gray" stroke="black" cx="312.78" cy="-234" rx="50.46" ry="18"/>
<text text-anchor="middle" x="312.78" y="-231.8" font-family="Times,serif" font-size="9.00">plan_trajectory</text>
</g>
<!-- plan_and_execute_trajectory&#45;&gt;plan_trajectory -->
<g id="edge9" class="edge">
<title>plan_and_execute_trajectory&#45;&gt;plan_trajectory</title>
<path fill="none" stroke="black" d="M321.06,-287.7C319.85,-279.98 318.39,-270.71 317.04,-262.11"/>
<polygon fill="black" stroke="black" points="320.47,-261.44 315.46,-252.1 313.56,-262.53 320.47,-261.44"/>
</g>
<!-- end_behavior -->
<g id="node11" class="node">
<title>end_behavior</title>
<ellipse fill="gray" stroke="black" cx="426.78" cy="-234" rx="45.72" ry="18"/>
<text text-anchor="middle" x="426.78" y="-231.8" font-family="Times,serif" font-size="9.00">end_behavior</text>
</g>
<!-- plan_and_execute_trajectory&#45;&gt;end_behavior -->
<g id="edge10" class="edge">
<title>plan_and_execute_trajectory&#45;&gt;end_behavior</title>
<path fill="none" stroke="black" d="M348.97,-287.88C363.31,-278.13 381.37,-265.86 396.48,-255.59"/>
<polygon fill="black" stroke="black" points="398.68,-258.33 404.98,-249.81 394.74,-252.54 398.68,-258.33"/>
</g>
</g>
</svg>
