<?xml version="1.0" encoding="UTF-8" standalone="no"?>
<!DOCTYPE svg PUBLIC "-//W3C//DTD SVG 1.1//EN"
 "http://www.w3.org/Graphics/SVG/1.1/DTD/svg11.dtd">
<!-- Generated by graphviz version 2.43.0 (0)
 -->
<!-- Title: pastafarianism Pages: 1 -->
<svg width="595pt" height="404pt"
 viewBox="0.00 0.00 595.39 404.00" xmlns="http://www.w3.org/2000/svg" xmlns:xlink="http://www.w3.org/1999/xlink">
<g id="graph0" class="graph" transform="scale(1 1) rotate(0) translate(4 400)">
<title>pastafarianism</title>
<polygon fill="white" stroke="transparent" points="-4,4 -4,-400 591.39,-400 591.39,4 -4,4"/>
<!-- root -->
<g id="node1" class="node">
<title>root</title>
<polygon fill="orange" stroke="black" points="285.78,-396 231.78,-396 231.78,-360 285.78,-360 285.78,-396"/>
<text text-anchor="middle" x="258.78" y="-375.8" font-family="Times,serif" font-size="9.00">Ⓜ root</text>
</g>
<!-- detect_all_objects -->
<g id="node2" class="node">
<title>detect_all_objects</title>
<polygon fill="cyan" stroke="black" points="243.51,-298.54 243.51,-313.46 207.35,-324 156.21,-324 120.04,-313.46 120.04,-298.54 156.21,-288 207.35,-288 243.51,-298.54"/>
<text text-anchor="middle" x="181.78" y="-303.8" font-family="Times,serif" font-size="9.00">detect_all_objects</text>
</g>
<!-- root&#45;&gt;detect_all_objects -->
<g id="edge1" class="edge">
<title>root&#45;&gt;detect_all_objects</title>
<path fill="none" stroke="black" d="M239.74,-359.7C230.23,-351.05 218.57,-340.45 208.21,-331.03"/>
<polygon fill="black" stroke="black" points="210.35,-328.24 200.59,-324.1 205.64,-333.42 210.35,-328.24"/>
</g>
<!-- plan_and_execute_trajectory -->
<g id="node10" class="node">
<title>plan_and_execute_trajectory</title>
<polygon fill="orange" stroke="black" points="451.28,-324 302.28,-324 302.28,-288 451.28,-288 451.28,-324"/>
<text text-anchor="middle" x="376.78" y="-303.8" font-family="Times,serif" font-size="9.00">plan_and_execute_trajectory</text>
</g>
<!-- root&#45;&gt;plan_and_execute_trajectory -->
<g id="edge9" class="edge">
<title>root&#45;&gt;plan_and_execute_trajectory</title>
<path fill="none" stroke="black" d="M285.85,-360.94C301.61,-351.59 321.72,-339.66 339.02,-329.4"/>
<polygon fill="black" stroke="black" points="340.95,-332.32 347.77,-324.21 337.38,-326.3 340.95,-332.32"/>
</g>
<!-- is_objects_detected -->
<g id="node3" class="node">
<title>is_objects_detected</title>
<ellipse fill="gray" stroke="black" cx="61.78" cy="-234" rx="61.55" ry="18"/>
<text text-anchor="middle" x="61.78" y="-231.8" font-family="Times,serif" font-size="9.00">is_objects_detected</text>
</g>
<!-- detect_all_objects&#45;&gt;is_objects_detected -->
<g id="edge2" class="edge">
<title>detect_all_objects&#45;&gt;is_objects_detected</title>
<path fill="none" stroke="black" d="M153.64,-288.59C136.77,-278.75 115.16,-266.14 97.14,-255.63"/>
<polygon fill="black" stroke="black" points="98.49,-252.37 88.09,-250.35 94.97,-258.41 98.49,-252.37"/>
</g>
<!-- loop_detect -->
<g id="node4" class="node">
<title>loop_detect</title>
<ellipse fill="ghostwhite" stroke="black" cx="181.78" cy="-234" rx="40.33" ry="18"/>
<text text-anchor="middle" x="181.78" y="-231.8" font-family="Times,serif" font-size="9.00">loop_detect</text>
</g>
<!-- detect_all_objects&#45;&gt;loop_detect -->
<g id="edge3" class="edge">
<title>detect_all_objects&#45;&gt;loop_detect</title>
<path fill="none" stroke="black" d="M181.78,-287.7C181.78,-279.98 181.78,-270.71 181.78,-262.11"/>
<polygon fill="black" stroke="black" points="185.28,-262.1 181.78,-252.1 178.28,-262.1 185.28,-262.1"/>
</g>
<!-- retry_on_detect_fail -->
<g id="node5" class="node">
<title>retry_on_detect_fail</title>
<ellipse fill="ghostwhite" stroke="black" cx="181.78" cy="-162" rx="62.21" ry="18"/>
<text text-anchor="middle" x="181.78" y="-159.8" font-family="Times,serif" font-size="9.00">retry_on_detect_fail</text>
</g>
<!-- loop_detect&#45;&gt;retry_on_detect_fail -->
<g id="edge4" class="edge">
<title>loop_detect&#45;&gt;retry_on_detect_fail</title>
<path fill="none" stroke="black" d="M181.78,-215.7C181.78,-207.98 181.78,-198.71 181.78,-190.11"/>
<polygon fill="black" stroke="black" points="185.28,-190.1 181.78,-180.1 178.28,-190.1 185.28,-190.1"/>
</g>
<!-- detect_one_object -->
<g id="node6" class="node">
<title>detect_one_object</title>
<polygon fill="orange" stroke="black" points="238.78,-108 124.78,-108 124.78,-72 238.78,-72 238.78,-108"/>
<text text-anchor="middle" x="181.78" y="-87.8" font-family="Times,serif" font-size="9.00">Ⓜ detect_one_object</text>
</g>
<!-- retry_on_detect_fail&#45;&gt;detect_one_object -->
<g id="edge5" class="edge">
<title>retry_on_detect_fail&#45;&gt;detect_one_object</title>
<path fill="none" stroke="black" d="M181.78,-143.7C181.78,-135.98 181.78,-126.71 181.78,-118.11"/>
<polygon fill="black" stroke="black" points="185.28,-118.1 181.78,-108.1 178.28,-118.1 185.28,-118.1"/>
</g>
<!-- ask_for_prompt -->
<g id="node7" class="node">
<title>ask_for_prompt</title>
<ellipse fill="gray" stroke="black" cx="64.78" cy="-18" rx="50.46" ry="18"/>
<text text-anchor="middle" x="64.78" y="-15.8" font-family="Times,serif" font-size="9.00">ask_for_prompt</text>
</g>
<!-- detect_one_object&#45;&gt;ask_for_prompt -->
<g id="edge6" class="edge">
<title>detect_one_object&#45;&gt;ask_for_prompt</title>
<path fill="none" stroke="black" d="M153.16,-71.88C136.56,-61.95 115.59,-49.4 98.24,-39.02"/>
<polygon fill="black" stroke="black" points="99.91,-35.94 89.54,-33.81 96.32,-41.95 99.91,-35.94"/>
</g>
<!-- grounded_sam -->
<g id="node8" class="node">
<title>grounded_sam</title>
<ellipse fill="gray" stroke="black" cx="181.78" cy="-18" rx="48.49" ry="18"/>
<text text-anchor="middle" x="181.78" y="-15.8" font-family="Times,serif" font-size="9.00">grounded_sam</text>
</g>
<!-- detect_one_object&#45;&gt;grounded_sam -->
<g id="edge7" class="edge">
<title>detect_one_object&#45;&gt;grounded_sam</title>
<path fill="none" stroke="black" d="M181.78,-71.7C181.78,-63.98 181.78,-54.71 181.78,-46.11"/>
<polygon fill="black" stroke="black" points="185.28,-46.1 181.78,-36.1 178.28,-46.1 185.28,-46.1"/>
</g>
<!-- confirm_detection -->
<g id="node9" class="node">
<title>confirm_detection</title>
<ellipse fill="gray" stroke="black" cx="305.78" cy="-18" rx="57.97" ry="18"/>
<text text-anchor="middle" x="305.78" y="-15.8" font-family="Times,serif" font-size="9.00">confirm_detection</text>
</g>
<!-- detect_one_object&#45;&gt;confirm_detection -->
<g id="edge8" class="edge">
<title>detect_one_object&#45;&gt;confirm_detection</title>
<path fill="none" stroke="black" d="M212.11,-71.88C229.65,-61.97 251.82,-49.46 270.18,-39.09"/>
<polygon fill="black" stroke="black" points="272.14,-42.01 279.12,-34.05 268.7,-35.91 272.14,-42.01"/>
</g>
<!-- plan_trajectory -->
<g id="node11" class="node">
<title>plan_trajectory</title>
<ellipse fill="gray" stroke="black" cx="290.78" cy="-234" rx="50.46" ry="18"/>
<text text-anchor="middle" x="290.78" y="-231.8" font-family="Times,serif" font-size="9.00">plan_trajectory</text>
</g>
<!-- plan_and_execute_trajectory&#45;&gt;plan_trajectory -->
<g id="edge10" class="edge">
<title>plan_and_execute_trajectory&#45;&gt;plan_trajectory</title>
<path fill="none" stroke="black" d="M355.52,-287.7C344.2,-278.49 330.16,-267.06 318.05,-257.2"/>
<polygon fill="black" stroke="black" points="319.99,-254.27 310.03,-250.67 315.58,-259.7 319.99,-254.27"/>
</g>
<!-- execute_trajectory -->
<g id="node12" class="node">
<title>execute_trajectory</title>
<ellipse fill="gray" stroke="black" cx="418.78" cy="-234" rx="59.43" ry="18"/>
<text text-anchor="middle" x="418.78" y="-231.8" font-family="Times,serif" font-size="9.00">execute_trajectory</text>
</g>
<!-- plan_and_execute_trajectory&#45;&gt;execute_trajectory -->
<g id="edge11" class="edge">
<title>plan_and_execute_trajectory&#45;&gt;execute_trajectory</title>
<path fill="none" stroke="black" d="M387.16,-287.7C392.04,-279.56 397.96,-269.69 403.36,-260.7"/>
<polygon fill="black" stroke="black" points="406.37,-262.48 408.51,-252.1 400.37,-258.88 406.37,-262.48"/>
</g>
<!-- end_behavior -->
<g id="node13" class="node">
<title>end_behavior</title>
<ellipse fill="gray" stroke="black" cx="541.78" cy="-234" rx="45.72" ry="18"/>
<text text-anchor="middle" x="541.78" y="-231.8" font-family="Times,serif" font-size="9.00">end_behavior</text>
</g>
<!-- plan_and_execute_trajectory&#45;&gt;end_behavior -->
<g id="edge12" class="edge">
<title>plan_and_execute_trajectory&#45;&gt;end_behavior</title>
<path fill="none" stroke="black" d="M417.14,-287.88C443.11,-276.86 476.7,-262.61 502.46,-251.68"/>
<polygon fill="black" stroke="black" points="504.08,-254.79 511.92,-247.67 501.35,-248.35 504.08,-254.79"/>
</g>
</g>
</svg>
